<svg xmlns="http://www.w3.org/2000/svg" viewBox="0 0 940 660" font-family="Helvetica, Arial, sans-serif">
  <defs>
    <g id="minibot17">
      <line x1="-10" y1="-34" x2="-14" y2="-44" stroke="#8f3d10" stroke-width="3" stroke-linecap="round"/>
      <line x1="10" y1="-34" x2="14" y2="-44" stroke="#8f3d10" stroke-width="3" stroke-linecap="round"/>
      <circle cx="-15" cy="-46" r="4" fill="#c98a4b" stroke="#8f3d10" stroke-width="2.5"/>
      <circle cx="15" cy="-46" r="4" fill="#c98a4b" stroke="#8f3d10" stroke-width="2.5"/>
      <rect x="-24" y="-36" width="48" height="34" rx="8" fill="#b5541c"/>
      <rect x="-18" y="-31" width="36" height="24" rx="5" fill="#fffdf7"/>
      <circle cx="-7" cy="-21" r="2.5" fill="#4a2c17"/>
      <circle cx="7" cy="-21" r="2.5" fill="#4a2c17"/>
      <rect x="-19" y="0" width="38" height="28" rx="7" fill="#fffdf7" stroke="#8f3d10" stroke-width="3"/>
    </g>
  </defs>

  <!-- ============ speech bubbles: talking about the robots ============ -->
  <!-- person A's bubble: when AI worked -->
  <g transform="translate(255,120)">
    <path d="M -120 -70 Q -120 -98 -92 -98 L 120 -98 Q 148 -98 148 -70 L 148 16 Q 148 44 120 44 L -30 44 L -66 80 L -56 44 L -92 44 Q -120 44 -120 16 Z"
          fill="#fffdf7" stroke="#8f3d10" stroke-width="6"/>
    <g transform="translate(-50,-24)"><use href="#minibot17"/></g>
    <path d="M 10 -14 L 34 10 L 78 -38" fill="none" stroke="#175e54" stroke-width="11" stroke-linecap="round" stroke-linejoin="round"/>
  </g>
  <!-- person B's bubble: when AI didn't -->
  <g transform="translate(690,120)">
    <path d="M -148 -70 Q -148 -98 -120 -98 L 92 -98 Q 120 -98 120 -70 L 120 16 Q 120 44 92 44 L 56 44 L 66 80 L 30 44 L -120 44 Q -148 44 -148 16 Z"
          fill="#fffdf7" stroke="#8f3d10" stroke-width="6"/>
    <g transform="translate(-58,-24)"><use href="#minibot17"/></g>
    <text x="48" y="8" text-anchor="middle" font-size="76" font-weight="bold" fill="#b5541c">?</text>
  </g>

  <!-- ============ person A (left) ============ -->
  <g transform="translate(280,420)">
    <rect x="-36" y="118" width="30" height="94" rx="14" fill="#8f3d10" stroke="#4a2c17" stroke-width="5"/>
    <rect x="6" y="118" width="30" height="94" rx="14" fill="#8f3d10" stroke="#4a2c17" stroke-width="5"/>
    <path d="M -48 224 Q -48 210 -34 210 L -6 210 L -6 232 L -48 232 Z" fill="#4a2c17"/>
    <path d="M 6 232 L 6 210 L 34 210 Q 48 210 48 224 L 48 232 Z" fill="#4a2c17"/>
    <path d="M -52 -20 Q -56 -30 -44 -33 L 44 -33 Q 56 -30 52 -20 L 46 106 Q 45 120 30 120 L -30 120 Q -45 120 -46 106 Z"
          fill="#2f6b5e" stroke="#4a2c17" stroke-width="5"/>
    <!-- gesturing arm toward partner -->
    <path d="M 48 -12 Q 78 -2 96 8" fill="none" stroke="#2f6b5e" stroke-width="24" stroke-linecap="round"/>
    <circle cx="106" cy="14" r="12" fill="#eebd93" stroke="#4a2c17" stroke-width="4"/>
    <path d="M -48 -12 Q -66 24 -56 62" fill="none" stroke="#2f6b5e" stroke-width="24" stroke-linecap="round"/>
    <circle cx="-54" cy="72" r="12" fill="#eebd93" stroke="#4a2c17" stroke-width="4"/>
    <rect x="-11" y="-48" width="22" height="20" rx="7" fill="#eebd93" stroke="#4a2c17" stroke-width="4"/>
    <circle cx="-42" cy="-78" r="9" fill="#eebd93" stroke="#4a2c17" stroke-width="4"/>
    <circle cx="42" cy="-78" r="9" fill="#eebd93" stroke="#4a2c17" stroke-width="4"/>
    <circle cx="0" cy="-78" r="42" fill="#eebd93" stroke="#4a2c17" stroke-width="5"/>
    <path d="M -42 -88 Q -44 -120 0 -120 Q 44 -120 42 -88 Q 26 -104 6 -102 Q -14 -104 -42 -88 Z"
          fill="#5b3a1e" stroke="#4a2c17" stroke-width="4" stroke-linejoin="round"/>
    <circle cx="-15" cy="-79" r="4.5" fill="#4a2c17"/>
    <circle cx="15" cy="-79" r="4.5" fill="#4a2c17"/>
    <path d="M -11 -60 Q 0 -53 11 -60" fill="none" stroke="#4a2c17" stroke-width="4" stroke-linecap="round"/>
  </g>

  <!-- ============ person B (right, facing A) ============ -->
  <g transform="translate(660,420)">
    <rect x="-36" y="118" width="30" height="94" rx="14" fill="#4a2c17" stroke="#2b1a0e" stroke-width="5"/>
    <rect x="6" y="118" width="30" height="94" rx="14" fill="#4a2c17" stroke="#2b1a0e" stroke-width="5"/>
    <path d="M -48 224 Q -48 210 -34 210 L -6 210 L -6 232 L -48 232 Z" fill="#2b1a0e"/>
    <path d="M 6 232 L 6 210 L 34 210 Q 48 210 48 224 L 48 232 Z" fill="#2b1a0e"/>
    <path d="M -52 -20 Q -56 -30 -44 -33 L 44 -33 Q 56 -30 52 -20 L 46 106 Q 45 120 30 120 L -30 120 Q -45 120 -46 106 Z"
          fill="#b5541c" stroke="#4a2c17" stroke-width="5"/>
    <!-- listening arm, hand near chin -->
    <path d="M -48 -12 Q -78 -4 -90 6" fill="none" stroke="#b5541c" stroke-width="24" stroke-linecap="round"/>
    <circle cx="-98" cy="12" r="12" fill="#d9a06b" stroke="#4a2c17" stroke-width="4"/>
    <path d="M 48 -12 Q 66 24 56 62" fill="none" stroke="#b5541c" stroke-width="24" stroke-linecap="round"/>
    <circle cx="54" cy="72" r="12" fill="#d9a06b" stroke="#4a2c17" stroke-width="4"/>
    <rect x="-11" y="-48" width="22" height="20" rx="7" fill="#d9a06b" stroke="#4a2c17" stroke-width="4"/>
    <circle cx="-42" cy="-78" r="9" fill="#d9a06b" stroke="#4a2c17" stroke-width="4"/>
    <circle cx="42" cy="-78" r="9" fill="#d9a06b" stroke="#4a2c17" stroke-width="4"/>
    <circle cx="0" cy="-78" r="42" fill="#d9a06b" stroke="#4a2c17" stroke-width="5"/>
    <path d="M -42 -86 Q -46 -122 0 -122 Q 46 -122 42 -86 Q 30 -108 0 -106 Q -30 -108 -42 -86 Z"
          fill="#2b1a0e" stroke="#1c110a" stroke-width="4" stroke-linejoin="round"/>
    <circle cx="-15" cy="-79" r="4.5" fill="#2b1a0e"/>
    <circle cx="15" cy="-79" r="4.5" fill="#2b1a0e"/>
    <path d="M -11 -60 Q 0 -53 11 -60" fill="none" stroke="#2b1a0e" stroke-width="4" stroke-linecap="round"/>
  </g>
</svg>
